<svg xmlns="http://www.w3.org/2000/svg" xmlns:xlink="http://www.w3.org/1999/xlink" fill="none" version="1.1" width="30" height="30" viewBox="0 0 30 30"><defs><filter id="master_svg1_267_0404" filterUnits="userSpaceOnUse" color-interpolation-filters="sRGB" x="1.3095707893371582" y="0.5000002384185791" width="27.380595207214355" height="29.999978065490723"><feFlood flood-opacity="0" result="BackgroundImageFix"/><feColorMatrix in="SourceAlpha" type="matrix" values="0 0 0 0 0 0 0 0 0 0 0 0 0 0 0 0 0 0 127 0"/><feOffset dy="2.499999761581421" dx="0"/><feGaussianBlur stdDeviation="2.499999761581421"/><feColorMatrix type="matrix" values="0 0 0 0 0 0 0 0 0 0 0 0 0 0 0 0 0 0 0.15000000596046448 0"/><feBlend mode="normal" in2="BackgroundImageFix" result="effect1_dropShadow"/><feBlend mode="normal" in="SourceGraphic" in2="effect1_dropShadow" result="shape"/></filter></defs><clipPath id="master_svg0_267_0402"><rect x="0" y="0" width="30" height="30" rx="0"/></clipPath><g clip-path="url(#master_svg0_267_0402)" style="mix-blend-mode:passthrough"><g><g filter="url(#master_svg1_267_0404)" style="mix-blend-mode:passthrough"><g><g style="mix-blend-mode:passthrough"><path d="M14.296870252895356,4.06537C14.296870252895356,3.476983,14.823600252895355,3,15.473350252895354,3C16.123090252895356,3,16.649770252895355,3.476983,16.649770252895355,4.06537L16.649770252895355,12.41174L17.820270252895355,12.41174L17.820270252895355,5.33295C17.820270252895355,4.78815,18.347070252895357,4.3465,18.996770252895356,4.3465C19.646570252895355,4.3465,20.173270252895357,4.78815,20.173270252895357,5.33295L20.173270252895357,12.41174L21.336870252895356,12.41174L21.336870252895356,9.103200000000001C21.336870252895356,8.61288,21.863670252895353,8.21539,22.513370252895356,8.21539C23.163170252895355,8.21539,23.689870252895354,8.61288,23.689870252895354,9.103200000000001L23.689870252895354,12.41174L23.690170252895356,12.41174L23.690170252895356,17.5509C23.690170252895356,20.5603,21.058370252895354,23,17.811870252895353,23L16.639070252895355,23C14.600140252895356,23,12.803700252895355,22.0377,11.749360252895356,20.5764C10.464830252895355,19.1054,8.302590252895355,17.3002,6.863296252895355,16.133699999999997C6.210954252895355,15.6049,6.117902252895355,14.6216,6.675462252895355,13.9959C7.6369602528953555,12.917,9.272200252895356,14.3787,10.266020252895355,15.4284C10.421020252895355,15.5921,10.586070252895356,15.7728,10.760740252895356,15.9719L10.760740252895356,12.41174L10.772460252895355,12.41174L10.772460252895355,6.632709999999999C10.772460252895355,6.01981,11.299180252895354,5.52295,11.948930252895355,5.52295C12.598670252895356,5.52295,13.125400252895355,6.01981,13.125400252895355,6.632709999999999L13.125400252895355,12.41174L14.296870252895356,12.41174L14.296870252895356,4.06537Z" fill-rule="evenodd" fill="#FFFFFF" fill-opacity="1"/><path d="M13.835960252895354,2.4225529999999997Q13.096870252895355,3.0918482,13.096870252895355,4.06537L13.096870252895355,4.60387Q12.581630252895355,4.3229500000000005,11.948930252895355,4.3229500000000005Q10.984950252895356,4.3229500000000005,10.293620252895355,4.9750700000000005Q9.572460252895356,5.65534,9.572460252895356,6.632709999999999L9.572460252895356,11.21174L9.560740252895355,11.21174L9.560740252895355,13.1938Q9.293160252895355,13.0044,9.040010252895355,12.86418Q8.239990252895355,12.42111,7.509140252895355,12.41698Q6.4803732528953555,12.41117,5.779588252895355,13.1975Q5.0165602528953555,14.0537,5.120500252895355,15.2087Q5.2231102528953555,16.3489,6.107700252895356,17.0659Q9.430200252895355,19.7589,10.811320252895356,21.3268Q11.779990252895356,22.6457,13.282860252895356,23.4067Q14.849280252895355,24.2,16.639070252895355,24.2L17.811870252895353,24.2Q20.717370252895357,24.2,22.784270252895354,22.284Q24.890170252895356,20.3318,24.890170252895356,17.5509L24.890170252895356,11.21174L24.889870252895356,11.21174L24.889870252895356,9.103200000000001Q24.889870252895356,8.13768,24.068070252895357,7.51756Q23.402670252895355,7.01539,22.513370252895356,7.01539Q21.887970252895357,7.01539,21.373270252895356,7.26377L21.373270252895356,5.33295Q21.373270252895356,4.36451,20.599670252895358,3.71589Q19.920570252895356,3.146497,18.996770252895356,3.146496Q18.316570252895353,3.146497,17.769070252895354,3.455156Q17.605570252895355,2.870667,17.110770252895357,2.422552Q16.423270252895357,1.8,15.473350252895354,1.8Q14.523440252895355,1.8,13.835960252895354,2.4225529999999997ZM17.849770252895354,5.112439999999999C17.830470252895353,5.183339999999999,17.820270252895355,5.25715,17.820270252895355,5.33295L17.820270252895355,12.41174L16.649770252895355,12.41174L16.649770252895355,4.06537C16.649770252895355,3.476983,16.123090252895356,3,15.473350252895354,3C14.823600252895355,3,14.296870252895356,3.476983,14.296870252895356,4.06537L14.296870252895356,12.41174L13.125400252895355,12.41174L13.125400252895355,6.632709999999999C13.125400252895355,6.5488800000000005,13.115550252895355,6.46723,13.096870252895355,6.38871C12.979020252895356,5.893190000000001,12.509810252895356,5.52295,11.948930252895355,5.52295C11.299180252895354,5.52295,10.772460252895355,6.01981,10.772460252895355,6.632709999999999L10.772460252895355,12.41174L10.760740252895356,12.41174L10.760740252895356,15.9719C10.586070252895356,15.7728,10.421020252895355,15.5921,10.266020252895355,15.4284C10.055530252895355,15.2061,9.816280252895355,14.9653,9.560740252895355,14.734C8.609750252895356,13.8735,7.4333202528953555,13.1455,6.675462252895355,13.9959C6.117902252895355,14.6216,6.210954252895355,15.6049,6.863296252895355,16.133699999999997C8.302590252895355,17.3002,10.464830252895355,19.1054,11.749360252895356,20.5764C12.803700252895355,22.0377,14.600140252895356,23,16.639070252895355,23L17.811870252895353,23C21.058370252895354,23,23.690170252895356,20.5603,23.690170252895356,17.5509L23.690170252895356,12.41174L23.689870252895354,12.41174L23.689870252895354,9.103200000000001C23.689870252895354,8.61288,23.163170252895355,8.21539,22.513370252895356,8.21539C21.964170252895357,8.21539,21.502870252895356,8.49938,21.373270252895356,8.883379999999999C21.349570252895354,8.95368,21.336870252895356,9.02733,21.336870252895356,9.103200000000001L21.336870252895356,12.41174L20.173270252895357,12.41174L20.173270252895357,5.33295C20.173270252895357,4.78815,19.646570252895355,4.3465,18.996770252895356,4.3465C18.437470252895356,4.3465,17.969270252895356,4.6738,17.849770252895354,5.112439999999999Z" fill-rule="evenodd" fill="#000000" fill-opacity="1"/></g><g style="mix-blend-mode:passthrough"><path d="M7.8864312171936035,13.725298550415038L9.497661217193603,16.96923855041504L12.458841217193603,18.00731855041504L13.634601217193604,15.49867855041504Q11.709281217193602,11.82530655041504,11.079881217193604,12.035342750415039Q10.774181217193604,12.137354550415038,10.774181217193604,13.155428550415039Q10.774181217193604,14.515228550415038,10.223621217193603,14.796188550415039Q9.513281217193603,15.158698550415039,7.8864312171936035,13.725298550415038Z" fill="#FFFFFF" fill-opacity="1"/></g><g style="mix-blend-mode:passthrough"><ellipse cx="13.71306163072586" cy="12.419805824756622" rx="0.5882351994514465" ry="0.5882351994514465" fill="#000000" fill-opacity="1"/></g><g style="mix-blend-mode:passthrough"><ellipse cx="17.24132376909256" cy="12.411763489246368" rx="0.5882351994514465" ry="0.5882351994514465" fill="#000000" fill-opacity="1"/></g><g style="mix-blend-mode:passthrough"><ellipse cx="20.76154452562332" cy="12.365806877613068" rx="0.5882351994514465" ry="0.5882351994514465" fill="#000000" fill-opacity="1"/></g></g></g></g></g></svg>